<svg xmlns="http://www.w3.org/2000/svg" xmlns:xlink="http://www.w3.org/1999/xlink" width="400" zoomAndPan="magnify" viewBox="0 0 300 149.999998" height="200" preserveAspectRatio="xMidYMid meet" version="1.0"><defs><g/><clipPath id="1f079e739f"><path d="M 31.929688 54.195312 L 49.167969 54.195312 L 49.167969 71.433594 L 31.929688 71.433594 Z M 31.929688 54.195312 " clip-rule="nonzero"/></clipPath><clipPath id="a71375d4df"><path d="M 49.167969 54.195312 L 66.40625 54.195312 L 66.40625 71.433594 L 49.167969 71.433594 Z M 49.167969 54.195312 " clip-rule="nonzero"/></clipPath><clipPath id="40386b2675"><path d="M 31.929688 36.957031 L 49.167969 36.957031 L 49.167969 54.195312 L 31.929688 54.195312 Z M 31.929688 36.957031 " clip-rule="nonzero"/></clipPath><clipPath id="bd117c6b19"><path d="M 49.167969 36.957031 L 66.40625 36.957031 L 66.40625 54.195312 L 49.167969 54.195312 Z M 49.167969 36.957031 " clip-rule="nonzero"/></clipPath><clipPath id="fa2df34d83"><path d="M 43.652344 48.679688 L 54.6875 48.679688 L 54.6875 59.714844 L 43.652344 59.714844 Z M 43.652344 48.679688 " clip-rule="nonzero"/></clipPath><clipPath id="369abb82f8"><path d="M 14.691406 54.195312 L 31.929688 54.195312 L 31.929688 71.433594 L 14.691406 71.433594 Z M 14.691406 54.195312 " clip-rule="nonzero"/></clipPath><clipPath id="13ecc41a7c"><path d="M 31.929688 71.433594 L 49.167969 71.433594 L 49.167969 88.671875 L 31.929688 88.671875 Z M 31.929688 71.433594 " clip-rule="nonzero"/></clipPath><clipPath id="ce35781ecf"><path d="M 49.167969 88.671875 L 66.40625 88.671875 L 66.40625 105.910156 L 49.167969 105.910156 Z M 49.167969 88.671875 " clip-rule="nonzero"/></clipPath></defs><g clip-path="url(#1f079e739f)"><path fill="#1966bf" d="M 31.929688 54.195312 L 49.167969 54.195312 L 49.167969 71.433594 L 31.929688 71.433594 Z M 31.929688 54.195312 " fill-opacity="1" fill-rule="nonzero"/></g><g clip-path="url(#a71375d4df)"><path fill="#1966bf" d="M 49.167969 54.195312 L 66.40625 54.195312 L 66.40625 71.433594 L 49.167969 71.433594 Z M 49.167969 54.195312 " fill-opacity="1" fill-rule="nonzero"/></g><g clip-path="url(#40386b2675)"><path fill="#1966bf" d="M 31.929688 36.957031 L 49.167969 36.957031 L 49.167969 54.195312 L 31.929688 54.195312 Z M 31.929688 36.957031 " fill-opacity="1" fill-rule="nonzero"/></g><g clip-path="url(#bd117c6b19)"><path fill="#1966bf" d="M 49.167969 36.957031 L 66.40625 36.957031 L 66.40625 54.195312 L 49.167969 54.195312 Z M 49.167969 36.957031 " fill-opacity="1" fill-rule="nonzero"/></g><g clip-path="url(#fa2df34d83)"><path fill="#1966bf" d="M 43.652344 48.679688 L 54.6875 48.679688 L 54.6875 59.714844 L 43.652344 59.714844 Z M 43.652344 48.679688 " fill-opacity="1" fill-rule="nonzero"/></g><g clip-path="url(#369abb82f8)"><path fill="#1966bf" d="M 14.691406 54.195312 L 31.929688 54.195312 L 31.929688 71.433594 L 14.691406 71.433594 Z M 14.691406 54.195312 " fill-opacity="1" fill-rule="nonzero"/></g><g clip-path="url(#13ecc41a7c)"><path fill="#1966bf" d="M 31.929688 71.433594 L 49.167969 71.433594 L 49.167969 88.671875 L 31.929688 88.671875 Z M 31.929688 71.433594 " fill-opacity="1" fill-rule="nonzero"/></g><g clip-path="url(#ce35781ecf)"><path fill="#1966bf" d="M 49.167969 88.671875 L 66.40625 88.671875 L 66.40625 105.910156 L 49.167969 105.910156 Z M 49.167969 88.671875 " fill-opacity="1" fill-rule="nonzero"/></g><g fill="#004aad" fill-opacity="0.4"><g transform="translate(75.091705, 103.687507)"><g><path d="M 11.578125 0 L 4.671875 0 C 4.109375 0 3.703125 -0.125 3.453125 -0.375 C 3.203125 -0.625 3.078125 -1.035156 3.078125 -1.609375 L 3.078125 -30.46875 C 3.078125 -31.03125 3.203125 -31.4375 3.453125 -31.6875 C 3.703125 -31.945312 4.109375 -32.078125 4.671875 -32.078125 L 18.3125 -32.078125 C 22.34375 -32.078125 25.101562 -31.273438 26.59375 -29.671875 C 28.082031 -28.066406 28.828125 -25.972656 28.828125 -23.390625 L 28.828125 -17.6875 C 28.828125 -15.101562 28.082031 -13.007812 26.59375 -11.40625 C 25.101562 -9.800781 22.34375 -9 18.3125 -9 L 13.1875 -9 L 13.1875 -1.609375 C 13.1875 -1.035156 13.054688 -0.625 12.796875 -0.375 C 12.546875 -0.125 12.140625 0 11.578125 0 Z M 13.09375 -23.75 L 13.09375 -17.015625 L 17.109375 -17.015625 C 17.960938 -17.015625 18.523438 -17.238281 18.796875 -17.6875 C 19.066406 -18.132812 19.203125 -18.640625 19.203125 -19.203125 L 19.203125 -21.5625 C 19.203125 -22.125 19.066406 -22.628906 18.796875 -23.078125 C 18.523438 -23.523438 17.960938 -23.75 17.109375 -23.75 Z M 13.09375 -23.75 "/></g></g></g><g fill="#004aad" fill-opacity="0.4"><g transform="translate(105.469873, 103.687507)"><g><path d="M 3.96875 0 C 3.40625 0 2.992188 -0.125 2.734375 -0.375 C 2.484375 -0.625 2.359375 -1.035156 2.359375 -1.609375 L 2.359375 -6.90625 C 2.359375 -7.46875 2.484375 -7.875 2.734375 -8.125 C 2.992188 -8.382812 3.40625 -8.515625 3.96875 -8.515625 L 8.375 -8.515625 L 8.375 -23.46875 L 3.96875 -23.46875 C 3.40625 -23.46875 2.992188 -23.59375 2.734375 -23.84375 C 2.484375 -24.101562 2.359375 -24.515625 2.359375 -25.078125 L 2.359375 -30.46875 C 2.359375 -31.03125 2.484375 -31.4375 2.734375 -31.6875 C 2.992188 -31.945312 3.40625 -32.078125 3.96875 -32.078125 L 22.9375 -32.078125 C 23.5 -32.078125 23.90625 -31.945312 24.15625 -31.6875 C 24.414062 -31.4375 24.546875 -31.03125 24.546875 -30.46875 L 24.546875 -25.078125 C 24.546875 -24.515625 24.414062 -24.101562 24.15625 -23.84375 C 23.90625 -23.59375 23.5 -23.46875 22.9375 -23.46875 L 18.625 -23.46875 L 18.625 -8.515625 L 22.9375 -8.515625 C 23.5 -8.515625 23.90625 -8.382812 24.15625 -8.125 C 24.414062 -7.875 24.546875 -7.46875 24.546875 -6.90625 L 24.546875 -1.609375 C 24.546875 -1.035156 24.414062 -0.625 24.15625 -0.375 C 23.90625 -0.125 23.5 0 22.9375 0 Z M 3.96875 0 "/></g></g></g><g fill="#004aad" fill-opacity="0.4"><g transform="translate(132.418244, 103.687507)"><g><path d="M 24.40625 0 L 13.546875 0 C 9.828125 0 7.066406 -0.738281 5.265625 -2.21875 C 3.472656 -3.707031 2.578125 -6 2.578125 -9.09375 L 2.578125 -22.9375 C 2.578125 -26.03125 3.472656 -28.328125 5.265625 -29.828125 C 7.066406 -31.328125 9.828125 -32.078125 13.546875 -32.078125 L 24.40625 -32.078125 C 24.976562 -32.078125 25.390625 -31.945312 25.640625 -31.6875 C 25.890625 -31.4375 26.015625 -31.03125 26.015625 -30.46875 L 26.015625 -25.078125 C 26.015625 -24.515625 25.890625 -24.101562 25.640625 -23.84375 C 25.390625 -23.59375 24.976562 -23.46875 24.40625 -23.46875 L 15.453125 -23.46875 C 14.535156 -23.46875 13.851562 -23.28125 13.40625 -22.90625 C 12.957031 -22.539062 12.734375 -21.988281 12.734375 -21.25 L 12.734375 -10.640625 C 12.734375 -9.898438 12.957031 -9.359375 13.40625 -9.015625 C 13.851562 -8.679688 14.535156 -8.515625 15.453125 -8.515625 L 24.40625 -8.515625 C 24.976562 -8.515625 25.390625 -8.382812 25.640625 -8.125 C 25.890625 -7.875 26.015625 -7.46875 26.015625 -6.90625 L 26.015625 -1.609375 C 26.015625 -1.035156 25.890625 -0.625 25.640625 -0.375 C 25.390625 -0.125 24.976562 0 24.40625 0 Z M 24.40625 0 "/></g></g></g><g fill="#004aad" fill-opacity="0.4"><g transform="translate(160.391097, 103.687507)"><g><path d="M 13.140625 -24.0625 L 13.140625 -18.359375 L 16.484375 -18.359375 C 17.253906 -18.359375 17.769531 -18.554688 18.03125 -18.953125 C 18.300781 -19.359375 18.4375 -19.859375 18.4375 -20.453125 L 18.4375 -21.96875 C 18.4375 -22.5625 18.300781 -23.054688 18.03125 -23.453125 C 17.769531 -23.859375 17.253906 -24.0625 16.484375 -24.0625 Z M 11.53125 0 L 4.671875 0 C 4.109375 0 3.703125 -0.125 3.453125 -0.375 C 3.203125 -0.625 3.078125 -1.035156 3.078125 -1.609375 L 3.078125 -30.46875 C 3.078125 -31.03125 3.203125 -31.4375 3.453125 -31.6875 C 3.703125 -31.945312 4.109375 -32.078125 4.671875 -32.078125 L 19.515625 -32.078125 C 22.835938 -32.078125 25.128906 -31.382812 26.390625 -30 C 27.648438 -28.625 28.28125 -26.835938 28.28125 -24.640625 L 28.28125 -22.578125 C 28.28125 -21.335938 28.09375 -20.28125 27.71875 -19.40625 C 27.351562 -18.53125 26.710938 -17.894531 25.796875 -17.5 C 27.398438 -17.320312 28.695312 -16.671875 29.6875 -15.546875 C 30.6875 -14.421875 31.1875 -12.921875 31.1875 -11.046875 L 31.1875 -1.609375 C 31.1875 -1.035156 31.054688 -0.625 30.796875 -0.375 C 30.546875 -0.125 30.140625 0 29.578125 0 L 22.671875 0 C 22.109375 0 21.703125 -0.125 21.453125 -0.375 C 21.203125 -0.625 21.078125 -1.035156 21.078125 -1.609375 L 21.078125 -8.421875 C 21.078125 -9.078125 20.945312 -9.554688 20.6875 -9.859375 C 20.4375 -10.171875 20 -10.328125 19.375 -10.328125 L 13.140625 -10.328125 L 13.140625 -1.609375 C 13.140625 -1.035156 13.015625 -0.625 12.765625 -0.375 C 12.515625 -0.125 12.101562 0 11.53125 0 Z M 11.53125 0 "/></g></g></g><g fill="#004aad" fill-opacity="0.4"><g transform="translate(193.486376, 103.687507)"><g><path d="M 30.25 -8.421875 C 30.25 -7.054688 30.046875 -5.816406 29.640625 -4.703125 C 29.242188 -3.585938 28.53125 -2.632812 27.5 -1.84375 C 26.476562 -1.0625 25.066406 -0.445312 23.265625 0 C 21.472656 0.445312 19.195312 0.671875 16.4375 0.671875 C 13.675781 0.671875 11.390625 0.445312 9.578125 0 C 7.765625 -0.445312 6.34375 -1.0625 5.3125 -1.84375 C 4.289062 -2.632812 3.578125 -3.585938 3.171875 -4.703125 C 2.773438 -5.816406 2.578125 -7.054688 2.578125 -8.421875 L 2.578125 -23.609375 C 2.578125 -24.972656 2.773438 -26.210938 3.171875 -27.328125 C 3.578125 -28.441406 4.289062 -29.398438 5.3125 -30.203125 C 6.34375 -31.003906 7.765625 -31.625 9.578125 -32.0625 C 11.390625 -32.507812 13.675781 -32.734375 16.4375 -32.734375 C 19.195312 -32.734375 21.472656 -32.507812 23.265625 -32.0625 C 25.066406 -31.625 26.476562 -31.003906 27.5 -30.203125 C 28.53125 -29.398438 29.242188 -28.441406 29.640625 -27.328125 C 30.046875 -26.210938 30.25 -24.972656 30.25 -23.609375 Z M 12.703125 -10.015625 C 12.703125 -9.421875 12.921875 -8.921875 13.359375 -8.515625 C 13.804688 -8.117188 14.832031 -7.921875 16.4375 -7.921875 C 18.039062 -7.921875 19.066406 -8.117188 19.515625 -8.515625 C 19.960938 -8.921875 20.1875 -9.421875 20.1875 -10.015625 L 20.1875 -22 C 20.1875 -22.570312 19.960938 -23.054688 19.515625 -23.453125 C 19.066406 -23.859375 18.039062 -24.0625 16.4375 -24.0625 C 14.832031 -24.0625 13.804688 -23.859375 13.359375 -23.453125 C 12.921875 -23.054688 12.703125 -22.570312 12.703125 -22 Z M 12.703125 -10.015625 "/></g></g></g><g fill="#004aad" fill-opacity="0.4"><g transform="translate(226.314403, 103.687507)"><g><path d="M 17.953125 0 L 3.875 0 C 3.3125 0 2.898438 -0.125 2.640625 -0.375 C 2.390625 -0.625 2.265625 -1.035156 2.265625 -1.609375 L 2.265625 -6.8125 C 2.265625 -7.375 2.390625 -7.78125 2.640625 -8.03125 C 2.898438 -8.289062 3.3125 -8.421875 3.875 -8.421875 L 15.859375 -8.421875 C 16.242188 -8.421875 16.53125 -8.546875 16.71875 -8.796875 C 16.914062 -9.046875 17.015625 -9.351562 17.015625 -9.71875 C 17.015625 -10.21875 16.914062 -10.585938 16.71875 -10.828125 C 16.53125 -11.066406 16.242188 -11.195312 15.859375 -11.21875 L 9.171875 -12.15625 C 7.097656 -12.457031 5.425781 -13.140625 4.15625 -14.203125 C 2.894531 -15.273438 2.265625 -17.0625 2.265625 -19.5625 L 2.265625 -24.234375 C 2.265625 -26.753906 3.082031 -28.691406 4.71875 -30.046875 C 6.351562 -31.398438 8.613281 -32.078125 11.5 -32.078125 L 23.96875 -32.078125 C 24.53125 -32.078125 24.9375 -31.945312 25.1875 -31.6875 C 25.4375 -31.4375 25.5625 -31.03125 25.5625 -30.46875 L 25.5625 -25.171875 C 25.5625 -24.609375 25.4375 -24.195312 25.1875 -23.9375 C 24.9375 -23.6875 24.53125 -23.5625 23.96875 -23.5625 L 13.59375 -23.5625 C 13.195312 -23.5625 12.894531 -23.4375 12.6875 -23.1875 C 12.488281 -22.9375 12.390625 -22.617188 12.390625 -22.234375 C 12.390625 -21.847656 12.488281 -21.519531 12.6875 -21.25 C 12.894531 -20.976562 13.195312 -20.828125 13.59375 -20.796875 L 20.21875 -19.90625 C 22.300781 -19.613281 23.976562 -18.929688 25.25 -17.859375 C 26.53125 -16.796875 27.171875 -15.015625 27.171875 -12.515625 L 27.171875 -7.84375 C 27.171875 -5.3125 26.347656 -3.367188 24.703125 -2.015625 C 23.054688 -0.671875 20.804688 0 17.953125 0 Z M 17.953125 0 "/></g></g></g><g fill="#004aad" fill-opacity="0.4"><g transform="translate(255.267197, 103.687507)"><g><path d="M 17.953125 0 L 3.875 0 C 3.3125 0 2.898438 -0.125 2.640625 -0.375 C 2.390625 -0.625 2.265625 -1.035156 2.265625 -1.609375 L 2.265625 -6.8125 C 2.265625 -7.375 2.390625 -7.78125 2.640625 -8.03125 C 2.898438 -8.289062 3.3125 -8.421875 3.875 -8.421875 L 15.859375 -8.421875 C 16.242188 -8.421875 16.53125 -8.546875 16.71875 -8.796875 C 16.914062 -9.046875 17.015625 -9.351562 17.015625 -9.71875 C 17.015625 -10.21875 16.914062 -10.585938 16.71875 -10.828125 C 16.53125 -11.066406 16.242188 -11.195312 15.859375 -11.21875 L 9.171875 -12.15625 C 7.097656 -12.457031 5.425781 -13.140625 4.15625 -14.203125 C 2.894531 -15.273438 2.265625 -17.0625 2.265625 -19.5625 L 2.265625 -24.234375 C 2.265625 -26.753906 3.082031 -28.691406 4.71875 -30.046875 C 6.351562 -31.398438 8.613281 -32.078125 11.5 -32.078125 L 23.96875 -32.078125 C 24.53125 -32.078125 24.9375 -31.945312 25.1875 -31.6875 C 25.4375 -31.4375 25.5625 -31.03125 25.5625 -30.46875 L 25.5625 -25.171875 C 25.5625 -24.609375 25.4375 -24.195312 25.1875 -23.9375 C 24.9375 -23.6875 24.53125 -23.5625 23.96875 -23.5625 L 13.59375 -23.5625 C 13.195312 -23.5625 12.894531 -23.4375 12.6875 -23.1875 C 12.488281 -22.9375 12.390625 -22.617188 12.390625 -22.234375 C 12.390625 -21.847656 12.488281 -21.519531 12.6875 -21.25 C 12.894531 -20.976562 13.195312 -20.828125 13.59375 -20.796875 L 20.21875 -19.90625 C 22.300781 -19.613281 23.976562 -18.929688 25.25 -17.859375 C 26.53125 -16.796875 27.171875 -15.015625 27.171875 -12.515625 L 27.171875 -7.84375 C 27.171875 -5.3125 26.347656 -3.367188 24.703125 -2.015625 C 23.054688 -0.671875 20.804688 0 17.953125 0 Z M 17.953125 0 "/></g></g></g><g fill="#1966bf" fill-opacity="1"><g transform="translate(73.122661, 101.718465)"><g><path d="M 11.578125 0 L 4.671875 0 C 4.109375 0 3.703125 -0.125 3.453125 -0.375 C 3.203125 -0.625 3.078125 -1.035156 3.078125 -1.609375 L 3.078125 -30.46875 C 3.078125 -31.03125 3.203125 -31.4375 3.453125 -31.6875 C 3.703125 -31.945312 4.109375 -32.078125 4.671875 -32.078125 L 18.3125 -32.078125 C 22.34375 -32.078125 25.101562 -31.273438 26.59375 -29.671875 C 28.082031 -28.066406 28.828125 -25.972656 28.828125 -23.390625 L 28.828125 -17.6875 C 28.828125 -15.101562 28.082031 -13.007812 26.59375 -11.40625 C 25.101562 -9.800781 22.34375 -9 18.3125 -9 L 13.1875 -9 L 13.1875 -1.609375 C 13.1875 -1.035156 13.054688 -0.625 12.796875 -0.375 C 12.546875 -0.125 12.140625 0 11.578125 0 Z M 13.09375 -23.75 L 13.09375 -17.015625 L 17.109375 -17.015625 C 17.960938 -17.015625 18.523438 -17.238281 18.796875 -17.6875 C 19.066406 -18.132812 19.203125 -18.640625 19.203125 -19.203125 L 19.203125 -21.5625 C 19.203125 -22.125 19.066406 -22.628906 18.796875 -23.078125 C 18.523438 -23.523438 17.960938 -23.75 17.109375 -23.75 Z M 13.09375 -23.75 "/></g></g></g><g fill="#1966bf" fill-opacity="1"><g transform="translate(103.500829, 101.718465)"><g><path d="M 3.96875 0 C 3.40625 0 2.992188 -0.125 2.734375 -0.375 C 2.484375 -0.625 2.359375 -1.035156 2.359375 -1.609375 L 2.359375 -6.90625 C 2.359375 -7.46875 2.484375 -7.875 2.734375 -8.125 C 2.992188 -8.382812 3.40625 -8.515625 3.96875 -8.515625 L 8.375 -8.515625 L 8.375 -23.46875 L 3.96875 -23.46875 C 3.40625 -23.46875 2.992188 -23.59375 2.734375 -23.84375 C 2.484375 -24.101562 2.359375 -24.515625 2.359375 -25.078125 L 2.359375 -30.46875 C 2.359375 -31.03125 2.484375 -31.4375 2.734375 -31.6875 C 2.992188 -31.945312 3.40625 -32.078125 3.96875 -32.078125 L 22.9375 -32.078125 C 23.5 -32.078125 23.90625 -31.945312 24.15625 -31.6875 C 24.414062 -31.4375 24.546875 -31.03125 24.546875 -30.46875 L 24.546875 -25.078125 C 24.546875 -24.515625 24.414062 -24.101562 24.15625 -23.84375 C 23.90625 -23.59375 23.5 -23.46875 22.9375 -23.46875 L 18.625 -23.46875 L 18.625 -8.515625 L 22.9375 -8.515625 C 23.5 -8.515625 23.90625 -8.382812 24.15625 -8.125 C 24.414062 -7.875 24.546875 -7.46875 24.546875 -6.90625 L 24.546875 -1.609375 C 24.546875 -1.035156 24.414062 -0.625 24.15625 -0.375 C 23.90625 -0.125 23.5 0 22.9375 0 Z M 3.96875 0 "/></g></g></g><g fill="#1966bf" fill-opacity="1"><g transform="translate(130.4492, 101.718465)"><g><path d="M 24.40625 0 L 13.546875 0 C 9.828125 0 7.066406 -0.738281 5.265625 -2.21875 C 3.472656 -3.707031 2.578125 -6 2.578125 -9.09375 L 2.578125 -22.9375 C 2.578125 -26.03125 3.472656 -28.328125 5.265625 -29.828125 C 7.066406 -31.328125 9.828125 -32.078125 13.546875 -32.078125 L 24.40625 -32.078125 C 24.976562 -32.078125 25.390625 -31.945312 25.640625 -31.6875 C 25.890625 -31.4375 26.015625 -31.03125 26.015625 -30.46875 L 26.015625 -25.078125 C 26.015625 -24.515625 25.890625 -24.101562 25.640625 -23.84375 C 25.390625 -23.59375 24.976562 -23.46875 24.40625 -23.46875 L 15.453125 -23.46875 C 14.535156 -23.46875 13.851562 -23.28125 13.40625 -22.90625 C 12.957031 -22.539062 12.734375 -21.988281 12.734375 -21.25 L 12.734375 -10.640625 C 12.734375 -9.898438 12.957031 -9.359375 13.40625 -9.015625 C 13.851562 -8.679688 14.535156 -8.515625 15.453125 -8.515625 L 24.40625 -8.515625 C 24.976562 -8.515625 25.390625 -8.382812 25.640625 -8.125 C 25.890625 -7.875 26.015625 -7.46875 26.015625 -6.90625 L 26.015625 -1.609375 C 26.015625 -1.035156 25.890625 -0.625 25.640625 -0.375 C 25.390625 -0.125 24.976562 0 24.40625 0 Z M 24.40625 0 "/></g></g></g><g fill="#1966bf" fill-opacity="1"><g transform="translate(158.422053, 101.718465)"><g><path d="M 13.140625 -24.0625 L 13.140625 -18.359375 L 16.484375 -18.359375 C 17.253906 -18.359375 17.769531 -18.554688 18.03125 -18.953125 C 18.300781 -19.359375 18.4375 -19.859375 18.4375 -20.453125 L 18.4375 -21.96875 C 18.4375 -22.5625 18.300781 -23.054688 18.03125 -23.453125 C 17.769531 -23.859375 17.253906 -24.0625 16.484375 -24.0625 Z M 11.53125 0 L 4.671875 0 C 4.109375 0 3.703125 -0.125 3.453125 -0.375 C 3.203125 -0.625 3.078125 -1.035156 3.078125 -1.609375 L 3.078125 -30.46875 C 3.078125 -31.03125 3.203125 -31.4375 3.453125 -31.6875 C 3.703125 -31.945312 4.109375 -32.078125 4.671875 -32.078125 L 19.515625 -32.078125 C 22.835938 -32.078125 25.128906 -31.382812 26.390625 -30 C 27.648438 -28.625 28.28125 -26.835938 28.28125 -24.640625 L 28.28125 -22.578125 C 28.28125 -21.335938 28.09375 -20.28125 27.71875 -19.40625 C 27.351562 -18.53125 26.710938 -17.894531 25.796875 -17.5 C 27.398438 -17.320312 28.695312 -16.671875 29.6875 -15.546875 C 30.6875 -14.421875 31.1875 -12.921875 31.1875 -11.046875 L 31.1875 -1.609375 C 31.1875 -1.035156 31.054688 -0.625 30.796875 -0.375 C 30.546875 -0.125 30.140625 0 29.578125 0 L 22.671875 0 C 22.109375 0 21.703125 -0.125 21.453125 -0.375 C 21.203125 -0.625 21.078125 -1.035156 21.078125 -1.609375 L 21.078125 -8.421875 C 21.078125 -9.078125 20.945312 -9.554688 20.6875 -9.859375 C 20.4375 -10.171875 20 -10.328125 19.375 -10.328125 L 13.140625 -10.328125 L 13.140625 -1.609375 C 13.140625 -1.035156 13.015625 -0.625 12.765625 -0.375 C 12.515625 -0.125 12.101562 0 11.53125 0 Z M 11.53125 0 "/></g></g></g><g fill="#1966bf" fill-opacity="1"><g transform="translate(191.517332, 101.718465)"><g><path d="M 30.25 -8.421875 C 30.25 -7.054688 30.046875 -5.816406 29.640625 -4.703125 C 29.242188 -3.585938 28.53125 -2.632812 27.5 -1.84375 C 26.476562 -1.0625 25.066406 -0.445312 23.265625 0 C 21.472656 0.445312 19.195312 0.671875 16.4375 0.671875 C 13.675781 0.671875 11.390625 0.445312 9.578125 0 C 7.765625 -0.445312 6.34375 -1.0625 5.3125 -1.84375 C 4.289062 -2.632812 3.578125 -3.585938 3.171875 -4.703125 C 2.773438 -5.816406 2.578125 -7.054688 2.578125 -8.421875 L 2.578125 -23.609375 C 2.578125 -24.972656 2.773438 -26.210938 3.171875 -27.328125 C 3.578125 -28.441406 4.289062 -29.398438 5.3125 -30.203125 C 6.34375 -31.003906 7.765625 -31.625 9.578125 -32.0625 C 11.390625 -32.507812 13.675781 -32.734375 16.4375 -32.734375 C 19.195312 -32.734375 21.472656 -32.507812 23.265625 -32.0625 C 25.066406 -31.625 26.476562 -31.003906 27.5 -30.203125 C 28.53125 -29.398438 29.242188 -28.441406 29.640625 -27.328125 C 30.046875 -26.210938 30.25 -24.972656 30.25 -23.609375 Z M 12.703125 -10.015625 C 12.703125 -9.421875 12.921875 -8.921875 13.359375 -8.515625 C 13.804688 -8.117188 14.832031 -7.921875 16.4375 -7.921875 C 18.039062 -7.921875 19.066406 -8.117188 19.515625 -8.515625 C 19.960938 -8.921875 20.1875 -9.421875 20.1875 -10.015625 L 20.1875 -22 C 20.1875 -22.570312 19.960938 -23.054688 19.515625 -23.453125 C 19.066406 -23.859375 18.039062 -24.0625 16.4375 -24.0625 C 14.832031 -24.0625 13.804688 -23.859375 13.359375 -23.453125 C 12.921875 -23.054688 12.703125 -22.570312 12.703125 -22 Z M 12.703125 -10.015625 "/></g></g></g><g fill="#1966bf" fill-opacity="1"><g transform="translate(224.345359, 101.718465)"><g><path d="M 17.953125 0 L 3.875 0 C 3.3125 0 2.898438 -0.125 2.640625 -0.375 C 2.390625 -0.625 2.265625 -1.035156 2.265625 -1.609375 L 2.265625 -6.8125 C 2.265625 -7.375 2.390625 -7.78125 2.640625 -8.03125 C 2.898438 -8.289062 3.3125 -8.421875 3.875 -8.421875 L 15.859375 -8.421875 C 16.242188 -8.421875 16.53125 -8.546875 16.71875 -8.796875 C 16.914062 -9.046875 17.015625 -9.351562 17.015625 -9.71875 C 17.015625 -10.21875 16.914062 -10.585938 16.71875 -10.828125 C 16.53125 -11.066406 16.242188 -11.195312 15.859375 -11.21875 L 9.171875 -12.15625 C 7.097656 -12.457031 5.425781 -13.140625 4.15625 -14.203125 C 2.894531 -15.273438 2.265625 -17.0625 2.265625 -19.5625 L 2.265625 -24.234375 C 2.265625 -26.753906 3.082031 -28.691406 4.71875 -30.046875 C 6.351562 -31.398438 8.613281 -32.078125 11.5 -32.078125 L 23.96875 -32.078125 C 24.53125 -32.078125 24.9375 -31.945312 25.1875 -31.6875 C 25.4375 -31.4375 25.5625 -31.03125 25.5625 -30.46875 L 25.5625 -25.171875 C 25.5625 -24.609375 25.4375 -24.195312 25.1875 -23.9375 C 24.9375 -23.6875 24.53125 -23.5625 23.96875 -23.5625 L 13.59375 -23.5625 C 13.195312 -23.5625 12.894531 -23.4375 12.6875 -23.1875 C 12.488281 -22.9375 12.390625 -22.617188 12.390625 -22.234375 C 12.390625 -21.847656 12.488281 -21.519531 12.6875 -21.25 C 12.894531 -20.976562 13.195312 -20.828125 13.59375 -20.796875 L 20.21875 -19.90625 C 22.300781 -19.613281 23.976562 -18.929688 25.25 -17.859375 C 26.53125 -16.796875 27.171875 -15.015625 27.171875 -12.515625 L 27.171875 -7.84375 C 27.171875 -5.3125 26.347656 -3.367188 24.703125 -2.015625 C 23.054688 -0.671875 20.804688 0 17.953125 0 Z M 17.953125 0 "/></g></g></g><g fill="#1966bf" fill-opacity="1"><g transform="translate(253.298153, 101.718465)"><g><path d="M 17.953125 0 L 3.875 0 C 3.3125 0 2.898438 -0.125 2.640625 -0.375 C 2.390625 -0.625 2.265625 -1.035156 2.265625 -1.609375 L 2.265625 -6.8125 C 2.265625 -7.375 2.390625 -7.78125 2.640625 -8.03125 C 2.898438 -8.289062 3.3125 -8.421875 3.875 -8.421875 L 15.859375 -8.421875 C 16.242188 -8.421875 16.53125 -8.546875 16.71875 -8.796875 C 16.914062 -9.046875 17.015625 -9.351562 17.015625 -9.71875 C 17.015625 -10.21875 16.914062 -10.585938 16.71875 -10.828125 C 16.53125 -11.066406 16.242188 -11.195312 15.859375 -11.21875 L 9.171875 -12.15625 C 7.097656 -12.457031 5.425781 -13.140625 4.15625 -14.203125 C 2.894531 -15.273438 2.265625 -17.0625 2.265625 -19.5625 L 2.265625 -24.234375 C 2.265625 -26.753906 3.082031 -28.691406 4.71875 -30.046875 C 6.351562 -31.398438 8.613281 -32.078125 11.5 -32.078125 L 23.96875 -32.078125 C 24.53125 -32.078125 24.9375 -31.945312 25.1875 -31.6875 C 25.4375 -31.4375 25.5625 -31.03125 25.5625 -30.46875 L 25.5625 -25.171875 C 25.5625 -24.609375 25.4375 -24.195312 25.1875 -23.9375 C 24.9375 -23.6875 24.53125 -23.5625 23.96875 -23.5625 L 13.59375 -23.5625 C 13.195312 -23.5625 12.894531 -23.4375 12.6875 -23.1875 C 12.488281 -22.9375 12.390625 -22.617188 12.390625 -22.234375 C 12.390625 -21.847656 12.488281 -21.519531 12.6875 -21.25 C 12.894531 -20.976562 13.195312 -20.828125 13.59375 -20.796875 L 20.21875 -19.90625 C 22.300781 -19.613281 23.976562 -18.929688 25.25 -17.859375 C 26.53125 -16.796875 27.171875 -15.015625 27.171875 -12.515625 L 27.171875 -7.84375 C 27.171875 -5.3125 26.347656 -3.367188 24.703125 -2.015625 C 23.054688 -0.671875 20.804688 0 17.953125 0 Z M 17.953125 0 "/></g></g></g><g fill="#004aad" fill-opacity="0.4"><g transform="translate(76.239696, 63.139846)"><g><path d="M 3.546875 0 L 0.765625 0 C 0.648438 0 0.566406 -0.0234375 0.515625 -0.078125 C 0.472656 -0.128906 0.453125 -0.207031 0.453125 -0.3125 L 0.453125 -1.34375 C 0.453125 -1.457031 0.472656 -1.539062 0.515625 -1.59375 C 0.566406 -1.644531 0.648438 -1.671875 0.765625 -1.671875 L 3.140625 -1.671875 C 3.210938 -1.671875 3.265625 -1.691406 3.296875 -1.734375 C 3.335938 -1.785156 3.359375 -1.847656 3.359375 -1.921875 C 3.359375 -2.023438 3.335938 -2.097656 3.296875 -2.140625 C 3.265625 -2.191406 3.210938 -2.21875 3.140625 -2.21875 L 1.8125 -2.40625 C 1.40625 -2.46875 1.078125 -2.601562 0.828125 -2.8125 C 0.578125 -3.019531 0.453125 -3.375 0.453125 -3.875 L 0.453125 -4.796875 C 0.453125 -5.296875 0.613281 -5.675781 0.9375 -5.9375 C 1.257812 -6.207031 1.707031 -6.34375 2.28125 -6.34375 L 4.734375 -6.34375 C 4.847656 -6.34375 4.929688 -6.316406 4.984375 -6.265625 C 5.035156 -6.210938 5.0625 -6.132812 5.0625 -6.03125 L 5.0625 -4.984375 C 5.0625 -4.867188 5.035156 -4.785156 4.984375 -4.734375 C 4.929688 -4.679688 4.847656 -4.65625 4.734375 -4.65625 L 2.6875 -4.65625 C 2.613281 -4.65625 2.554688 -4.628906 2.515625 -4.578125 C 2.472656 -4.535156 2.453125 -4.472656 2.453125 -4.390625 C 2.453125 -4.316406 2.472656 -4.253906 2.515625 -4.203125 C 2.554688 -4.148438 2.613281 -4.117188 2.6875 -4.109375 L 4 -3.9375 C 4.414062 -3.875 4.75 -3.738281 5 -3.53125 C 5.25 -3.320312 5.375 -2.96875 5.375 -2.46875 L 5.375 -1.546875 C 5.375 -1.046875 5.207031 -0.660156 4.875 -0.390625 C 4.550781 -0.128906 4.109375 0 3.546875 0 Z M 3.546875 0 "/></g></g></g><g fill="#004aad" fill-opacity="0.4"><g transform="translate(81.970667, 63.139846)"><g><path d="M 5.171875 -6.34375 L 6.484375 -6.34375 C 6.585938 -6.34375 6.664062 -6.316406 6.71875 -6.265625 C 6.769531 -6.210938 6.796875 -6.132812 6.796875 -6.03125 L 6.796875 -2.609375 C 6.796875 -2.421875 6.785156 -2.242188 6.765625 -2.078125 C 6.753906 -1.921875 6.710938 -1.734375 6.640625 -1.515625 L 6.1875 -0.3125 C 6.164062 -0.226562 6.125 -0.15625 6.0625 -0.09375 C 6.007812 -0.03125 5.9375 0 5.84375 0 L 4.671875 0 C 4.578125 0 4.488281 -0.0195312 4.40625 -0.0625 C 4.332031 -0.101562 4.285156 -0.171875 4.265625 -0.265625 L 3.859375 -1.703125 C 3.835938 -1.753906 3.8125 -1.789062 3.78125 -1.8125 C 3.757812 -1.832031 3.734375 -1.84375 3.703125 -1.84375 L 3.625 -1.84375 C 3.582031 -1.84375 3.546875 -1.832031 3.515625 -1.8125 C 3.492188 -1.789062 3.476562 -1.753906 3.46875 -1.703125 L 3.046875 -0.265625 C 3.023438 -0.171875 2.976562 -0.101562 2.90625 -0.0625 C 2.84375 -0.0195312 2.765625 0 2.671875 0 L 1.515625 0 C 1.421875 0 1.335938 -0.0234375 1.265625 -0.078125 C 1.203125 -0.140625 1.15625 -0.21875 1.125 -0.3125 L 0.6875 -1.53125 C 0.613281 -1.75 0.566406 -1.9375 0.546875 -2.09375 C 0.535156 -2.257812 0.53125 -2.4375 0.53125 -2.625 L 0.53125 -6.03125 C 0.53125 -6.132812 0.550781 -6.210938 0.59375 -6.265625 C 0.644531 -6.316406 0.726562 -6.34375 0.84375 -6.34375 L 2.203125 -6.34375 C 2.316406 -6.34375 2.394531 -6.316406 2.4375 -6.265625 C 2.488281 -6.210938 2.515625 -6.132812 2.515625 -6.03125 L 2.515625 -2.78125 L 3.03125 -3.890625 C 3.082031 -3.992188 3.144531 -4.066406 3.21875 -4.109375 C 3.289062 -4.148438 3.382812 -4.171875 3.5 -4.171875 L 3.875 -4.171875 C 3.976562 -4.171875 4.066406 -4.148438 4.140625 -4.109375 C 4.222656 -4.066406 4.285156 -3.992188 4.328125 -3.890625 L 4.84375 -2.78125 L 4.84375 -6.03125 C 4.84375 -6.132812 4.867188 -6.210938 4.921875 -6.265625 C 4.972656 -6.316406 5.054688 -6.34375 5.171875 -6.34375 Z M 5.171875 -6.34375 "/></g></g></g><g fill="#004aad" fill-opacity="0.4"><g transform="translate(89.297495, 63.139846)"><g/></g></g><g fill="#004aad" fill-opacity="0.4"><g transform="translate(91.281294, 63.139846)"><g><path d="M 2.484375 -6.828125 L 2.484375 0.46875 C 2.484375 0.582031 2.457031 0.664062 2.40625 0.71875 C 2.351562 0.769531 2.273438 0.796875 2.171875 0.796875 L 0.890625 0.796875 C 0.773438 0.796875 0.691406 0.769531 0.640625 0.71875 C 0.597656 0.664062 0.578125 0.582031 0.578125 0.46875 L 0.578125 -6.828125 C 0.578125 -6.929688 0.597656 -7.007812 0.640625 -7.0625 C 0.691406 -7.113281 0.773438 -7.140625 0.890625 -7.140625 L 2.171875 -7.140625 C 2.273438 -7.140625 2.351562 -7.113281 2.40625 -7.0625 C 2.457031 -7.007812 2.484375 -6.929688 2.484375 -6.828125 Z M 2.484375 -6.828125 "/></g></g></g><g fill="#004aad" fill-opacity="0.4"><g transform="translate(94.340751, 63.139846)"><g/></g></g><g fill="#004aad" fill-opacity="0.4"><g transform="translate(96.32455, 63.139846)"><g><path d="M 5.5 -1.671875 C 5.5 -1.398438 5.457031 -1.148438 5.375 -0.921875 C 5.300781 -0.703125 5.171875 -0.515625 4.984375 -0.359375 C 4.796875 -0.203125 4.53125 -0.0820312 4.1875 0 C 3.851562 0.0820312 3.429688 0.125 2.921875 0.125 C 2.410156 0.125 1.988281 0.0820312 1.65625 0 C 1.320312 -0.0820312 1.054688 -0.203125 0.859375 -0.359375 C 0.671875 -0.515625 0.539062 -0.703125 0.46875 -0.921875 C 0.394531 -1.148438 0.359375 -1.398438 0.359375 -1.671875 L 0.359375 -3.09375 C 0.359375 -3.207031 0.382812 -3.285156 0.4375 -3.328125 C 0.488281 -3.378906 0.566406 -3.40625 0.671875 -3.40625 L 1.953125 -3.40625 C 2.066406 -3.40625 2.148438 -3.378906 2.203125 -3.328125 C 2.253906 -3.285156 2.28125 -3.207031 2.28125 -3.09375 L 2.28125 -2.015625 C 2.28125 -1.898438 2.316406 -1.800781 2.390625 -1.71875 C 2.460938 -1.644531 2.632812 -1.609375 2.90625 -1.609375 C 3.15625 -1.609375 3.3125 -1.644531 3.375 -1.71875 C 3.445312 -1.800781 3.484375 -1.898438 3.484375 -2.015625 L 3.484375 -6.03125 C 3.484375 -6.132812 3.503906 -6.210938 3.546875 -6.265625 C 3.597656 -6.316406 3.679688 -6.34375 3.796875 -6.34375 L 5.1875 -6.34375 C 5.289062 -6.34375 5.367188 -6.316406 5.421875 -6.265625 C 5.472656 -6.210938 5.5 -6.132812 5.5 -6.03125 Z M 5.5 -1.671875 "/></g></g></g><g fill="#004aad" fill-opacity="0.4"><g transform="translate(102.390563, 63.139846)"><g><path d="M 2.234375 0 L 0.921875 0 C 0.816406 0 0.738281 -0.0234375 0.6875 -0.078125 C 0.632812 -0.128906 0.609375 -0.207031 0.609375 -0.3125 L 0.609375 -6.03125 C 0.609375 -6.132812 0.632812 -6.210938 0.6875 -6.265625 C 0.738281 -6.316406 0.816406 -6.34375 0.921875 -6.34375 L 2.34375 -6.34375 C 2.4375 -6.34375 2.515625 -6.320312 2.578125 -6.28125 C 2.640625 -6.238281 2.695312 -6.171875 2.75 -6.078125 L 3.546875 -4.640625 C 3.578125 -4.585938 3.597656 -4.550781 3.609375 -4.53125 C 3.628906 -4.507812 3.660156 -4.5 3.703125 -4.5 L 3.78125 -4.5 C 3.8125 -4.5 3.835938 -4.507812 3.859375 -4.53125 C 3.878906 -4.550781 3.90625 -4.585938 3.9375 -4.640625 L 4.71875 -6.078125 C 4.769531 -6.171875 4.828125 -6.238281 4.890625 -6.28125 C 4.953125 -6.320312 5.03125 -6.34375 5.125 -6.34375 L 6.5625 -6.34375 C 6.664062 -6.34375 6.742188 -6.316406 6.796875 -6.265625 C 6.847656 -6.210938 6.875 -6.132812 6.875 -6.03125 L 6.875 -0.3125 C 6.875 -0.207031 6.847656 -0.128906 6.796875 -0.078125 C 6.742188 -0.0234375 6.664062 0 6.5625 0 L 5.203125 0 C 5.085938 0 5.003906 -0.0234375 4.953125 -0.078125 C 4.898438 -0.128906 4.875 -0.207031 4.875 -0.3125 L 4.875 -3.421875 L 4.359375 -2.453125 C 4.304688 -2.359375 4.242188 -2.285156 4.171875 -2.234375 C 4.097656 -2.191406 4.003906 -2.171875 3.890625 -2.171875 L 3.546875 -2.171875 C 3.429688 -2.171875 3.335938 -2.191406 3.265625 -2.234375 C 3.191406 -2.285156 3.128906 -2.359375 3.078125 -2.453125 L 2.5625 -3.421875 L 2.5625 -0.3125 C 2.5625 -0.207031 2.535156 -0.128906 2.484375 -0.078125 C 2.429688 -0.0234375 2.347656 0 2.234375 0 Z M 2.234375 0 "/></g></g></g><g fill="#004aad" fill-opacity="0.4"><g transform="translate(109.876095, 63.139846)"><g/></g></g><g fill="#004aad" fill-opacity="0.4"><g transform="translate(111.859894, 63.139846)"><g><path d="M 2.484375 -6.828125 L 2.484375 0.46875 C 2.484375 0.582031 2.457031 0.664062 2.40625 0.71875 C 2.351562 0.769531 2.273438 0.796875 2.171875 0.796875 L 0.890625 0.796875 C 0.773438 0.796875 0.691406 0.769531 0.640625 0.71875 C 0.597656 0.664062 0.578125 0.582031 0.578125 0.46875 L 0.578125 -6.828125 C 0.578125 -6.929688 0.597656 -7.007812 0.640625 -7.0625 C 0.691406 -7.113281 0.773438 -7.140625 0.890625 -7.140625 L 2.171875 -7.140625 C 2.273438 -7.140625 2.351562 -7.113281 2.40625 -7.0625 C 2.457031 -7.007812 2.484375 -6.929688 2.484375 -6.828125 Z M 2.484375 -6.828125 "/></g></g></g><g fill="#004aad" fill-opacity="0.4"><g transform="translate(114.919351, 63.139846)"><g/></g></g><g fill="#004aad" fill-opacity="0.4"><g transform="translate(116.90315, 63.139846)"><g><path d="M 2.90625 -4.5 L 2.5 -3.15625 L 3.875 -3.15625 L 3.46875 -4.5 C 3.4375 -4.550781 3.40625 -4.585938 3.375 -4.609375 C 3.351562 -4.628906 3.328125 -4.640625 3.296875 -4.640625 L 3.078125 -4.640625 C 3.035156 -4.640625 3 -4.628906 2.96875 -4.609375 C 2.945312 -4.585938 2.925781 -4.550781 2.90625 -4.5 Z M 2.40625 -0.3125 C 2.40625 -0.207031 2.378906 -0.128906 2.328125 -0.078125 C 2.273438 -0.0234375 2.195312 0 2.09375 0 L 0.796875 0 C 0.679688 0 0.597656 -0.0234375 0.546875 -0.078125 C 0.492188 -0.128906 0.46875 -0.207031 0.46875 -0.3125 L 0.46875 -2.640625 C 0.46875 -2.816406 0.492188 -3.019531 0.546875 -3.25 C 0.609375 -3.476562 0.695312 -3.742188 0.8125 -4.046875 L 1.59375 -6.046875 C 1.625 -6.148438 1.675781 -6.222656 1.75 -6.265625 C 1.820312 -6.316406 1.914062 -6.34375 2.03125 -6.34375 L 4.40625 -6.34375 C 4.519531 -6.34375 4.613281 -6.316406 4.6875 -6.265625 C 4.757812 -6.222656 4.8125 -6.148438 4.84375 -6.046875 L 5.609375 -4.046875 C 5.734375 -3.742188 5.820312 -3.476562 5.875 -3.25 C 5.925781 -3.019531 5.953125 -2.816406 5.953125 -2.640625 L 5.953125 -0.3125 C 5.953125 -0.207031 5.925781 -0.128906 5.875 -0.078125 C 5.832031 -0.0234375 5.753906 0 5.640625 0 L 4.3125 0 C 4.195312 0 4.109375 -0.0234375 4.046875 -0.078125 C 3.992188 -0.128906 3.96875 -0.207031 3.96875 -0.3125 L 3.96875 -1.546875 L 2.40625 -1.546875 Z M 2.40625 -0.3125 "/></g></g></g><g fill="#004aad" fill-opacity="0.4"><g transform="translate(123.339475, 63.139846)"><g><path d="M 3.890625 0 L 0.921875 0 C 0.816406 0 0.738281 -0.0234375 0.6875 -0.078125 C 0.632812 -0.128906 0.609375 -0.207031 0.609375 -0.3125 L 0.609375 -6.03125 C 0.609375 -6.132812 0.632812 -6.210938 0.6875 -6.265625 C 0.738281 -6.316406 0.816406 -6.34375 0.921875 -6.34375 L 3.890625 -6.34375 C 4.628906 -6.34375 5.175781 -6.195312 5.53125 -5.90625 C 5.882812 -5.613281 6.0625 -5.160156 6.0625 -4.546875 L 6.0625 -1.796875 C 6.0625 -1.179688 5.882812 -0.726562 5.53125 -0.4375 C 5.175781 -0.144531 4.628906 0 3.890625 0 Z M 2.609375 -4.65625 L 2.609375 -1.671875 L 3.65625 -1.671875 C 3.800781 -1.671875 3.90625 -1.703125 3.96875 -1.765625 C 4.039062 -1.835938 4.078125 -1.945312 4.078125 -2.09375 L 4.078125 -4.234375 C 4.078125 -4.378906 4.039062 -4.484375 3.96875 -4.546875 C 3.90625 -4.617188 3.800781 -4.65625 3.65625 -4.65625 Z M 2.609375 -4.65625 "/></g></g></g><g fill="#1966bf" fill-opacity="1"><g transform="translate(75.849936, 62.750094)"><g><path d="M 3.546875 0 L 0.765625 0 C 0.648438 0 0.566406 -0.0234375 0.515625 -0.078125 C 0.472656 -0.128906 0.453125 -0.207031 0.453125 -0.3125 L 0.453125 -1.34375 C 0.453125 -1.457031 0.472656 -1.539062 0.515625 -1.59375 C 0.566406 -1.644531 0.648438 -1.671875 0.765625 -1.671875 L 3.140625 -1.671875 C 3.210938 -1.671875 3.265625 -1.691406 3.296875 -1.734375 C 3.335938 -1.785156 3.359375 -1.847656 3.359375 -1.921875 C 3.359375 -2.023438 3.335938 -2.097656 3.296875 -2.140625 C 3.265625 -2.191406 3.210938 -2.21875 3.140625 -2.21875 L 1.8125 -2.40625 C 1.40625 -2.46875 1.078125 -2.601562 0.828125 -2.8125 C 0.578125 -3.019531 0.453125 -3.375 0.453125 -3.875 L 0.453125 -4.796875 C 0.453125 -5.296875 0.613281 -5.675781 0.9375 -5.9375 C 1.257812 -6.207031 1.707031 -6.34375 2.28125 -6.34375 L 4.734375 -6.34375 C 4.847656 -6.34375 4.929688 -6.316406 4.984375 -6.265625 C 5.035156 -6.210938 5.0625 -6.132812 5.0625 -6.03125 L 5.0625 -4.984375 C 5.0625 -4.867188 5.035156 -4.785156 4.984375 -4.734375 C 4.929688 -4.679688 4.847656 -4.65625 4.734375 -4.65625 L 2.6875 -4.65625 C 2.613281 -4.65625 2.554688 -4.628906 2.515625 -4.578125 C 2.472656 -4.535156 2.453125 -4.472656 2.453125 -4.390625 C 2.453125 -4.316406 2.472656 -4.253906 2.515625 -4.203125 C 2.554688 -4.148438 2.613281 -4.117188 2.6875 -4.109375 L 4 -3.9375 C 4.414062 -3.875 4.75 -3.738281 5 -3.53125 C 5.25 -3.320312 5.375 -2.96875 5.375 -2.46875 L 5.375 -1.546875 C 5.375 -1.046875 5.207031 -0.660156 4.875 -0.390625 C 4.550781 -0.128906 4.109375 0 3.546875 0 Z M 3.546875 0 "/></g></g></g><g fill="#1966bf" fill-opacity="1"><g transform="translate(81.580907, 62.750094)"><g><path d="M 5.171875 -6.34375 L 6.484375 -6.34375 C 6.585938 -6.34375 6.664062 -6.316406 6.71875 -6.265625 C 6.769531 -6.210938 6.796875 -6.132812 6.796875 -6.03125 L 6.796875 -2.609375 C 6.796875 -2.421875 6.785156 -2.242188 6.765625 -2.078125 C 6.753906 -1.921875 6.710938 -1.734375 6.640625 -1.515625 L 6.1875 -0.3125 C 6.164062 -0.226562 6.125 -0.15625 6.0625 -0.09375 C 6.007812 -0.03125 5.9375 0 5.84375 0 L 4.671875 0 C 4.578125 0 4.488281 -0.0195312 4.40625 -0.0625 C 4.332031 -0.101562 4.285156 -0.171875 4.265625 -0.265625 L 3.859375 -1.703125 C 3.835938 -1.753906 3.8125 -1.789062 3.78125 -1.8125 C 3.757812 -1.832031 3.734375 -1.84375 3.703125 -1.84375 L 3.625 -1.84375 C 3.582031 -1.84375 3.546875 -1.832031 3.515625 -1.8125 C 3.492188 -1.789062 3.476562 -1.753906 3.46875 -1.703125 L 3.046875 -0.265625 C 3.023438 -0.171875 2.976562 -0.101562 2.90625 -0.0625 C 2.84375 -0.0195312 2.765625 0 2.671875 0 L 1.515625 0 C 1.421875 0 1.335938 -0.0234375 1.265625 -0.078125 C 1.203125 -0.140625 1.15625 -0.21875 1.125 -0.3125 L 0.6875 -1.53125 C 0.613281 -1.75 0.566406 -1.9375 0.546875 -2.09375 C 0.535156 -2.257812 0.53125 -2.4375 0.53125 -2.625 L 0.53125 -6.03125 C 0.53125 -6.132812 0.550781 -6.210938 0.59375 -6.265625 C 0.644531 -6.316406 0.726562 -6.34375 0.84375 -6.34375 L 2.203125 -6.34375 C 2.316406 -6.34375 2.394531 -6.316406 2.4375 -6.265625 C 2.488281 -6.210938 2.515625 -6.132812 2.515625 -6.03125 L 2.515625 -2.78125 L 3.03125 -3.890625 C 3.082031 -3.992188 3.144531 -4.066406 3.21875 -4.109375 C 3.289062 -4.148438 3.382812 -4.171875 3.5 -4.171875 L 3.875 -4.171875 C 3.976562 -4.171875 4.066406 -4.148438 4.140625 -4.109375 C 4.222656 -4.066406 4.285156 -3.992188 4.328125 -3.890625 L 4.84375 -2.78125 L 4.84375 -6.03125 C 4.84375 -6.132812 4.867188 -6.210938 4.921875 -6.265625 C 4.972656 -6.316406 5.054688 -6.34375 5.171875 -6.34375 Z M 5.171875 -6.34375 "/></g></g></g><g fill="#1966bf" fill-opacity="1"><g transform="translate(88.907735, 62.750094)"><g/></g></g><g fill="#1966bf" fill-opacity="1"><g transform="translate(90.891534, 62.750094)"><g><path d="M 2.484375 -6.828125 L 2.484375 0.46875 C 2.484375 0.582031 2.457031 0.664062 2.40625 0.71875 C 2.351562 0.769531 2.273438 0.796875 2.171875 0.796875 L 0.890625 0.796875 C 0.773438 0.796875 0.691406 0.769531 0.640625 0.71875 C 0.597656 0.664062 0.578125 0.582031 0.578125 0.46875 L 0.578125 -6.828125 C 0.578125 -6.929688 0.597656 -7.007812 0.640625 -7.0625 C 0.691406 -7.113281 0.773438 -7.140625 0.890625 -7.140625 L 2.171875 -7.140625 C 2.273438 -7.140625 2.351562 -7.113281 2.40625 -7.0625 C 2.457031 -7.007812 2.484375 -6.929688 2.484375 -6.828125 Z M 2.484375 -6.828125 "/></g></g></g><g fill="#1966bf" fill-opacity="1"><g transform="translate(93.950991, 62.750094)"><g/></g></g><g fill="#1966bf" fill-opacity="1"><g transform="translate(95.93479, 62.750094)"><g><path d="M 5.5 -1.671875 C 5.5 -1.398438 5.457031 -1.148438 5.375 -0.921875 C 5.300781 -0.703125 5.171875 -0.515625 4.984375 -0.359375 C 4.796875 -0.203125 4.53125 -0.0820312 4.1875 0 C 3.851562 0.0820312 3.429688 0.125 2.921875 0.125 C 2.410156 0.125 1.988281 0.0820312 1.65625 0 C 1.320312 -0.0820312 1.054688 -0.203125 0.859375 -0.359375 C 0.671875 -0.515625 0.539062 -0.703125 0.46875 -0.921875 C 0.394531 -1.148438 0.359375 -1.398438 0.359375 -1.671875 L 0.359375 -3.09375 C 0.359375 -3.207031 0.382812 -3.285156 0.4375 -3.328125 C 0.488281 -3.378906 0.566406 -3.40625 0.671875 -3.40625 L 1.953125 -3.40625 C 2.066406 -3.40625 2.148438 -3.378906 2.203125 -3.328125 C 2.253906 -3.285156 2.28125 -3.207031 2.28125 -3.09375 L 2.28125 -2.015625 C 2.28125 -1.898438 2.316406 -1.800781 2.390625 -1.71875 C 2.460938 -1.644531 2.632812 -1.609375 2.90625 -1.609375 C 3.15625 -1.609375 3.3125 -1.644531 3.375 -1.71875 C 3.445312 -1.800781 3.484375 -1.898438 3.484375 -2.015625 L 3.484375 -6.03125 C 3.484375 -6.132812 3.503906 -6.210938 3.546875 -6.265625 C 3.597656 -6.316406 3.679688 -6.34375 3.796875 -6.34375 L 5.1875 -6.34375 C 5.289062 -6.34375 5.367188 -6.316406 5.421875 -6.265625 C 5.472656 -6.210938 5.5 -6.132812 5.5 -6.03125 Z M 5.5 -1.671875 "/></g></g></g><g fill="#1966bf" fill-opacity="1"><g transform="translate(102.000803, 62.750094)"><g><path d="M 2.234375 0 L 0.921875 0 C 0.816406 0 0.738281 -0.0234375 0.6875 -0.078125 C 0.632812 -0.128906 0.609375 -0.207031 0.609375 -0.3125 L 0.609375 -6.03125 C 0.609375 -6.132812 0.632812 -6.210938 0.6875 -6.265625 C 0.738281 -6.316406 0.816406 -6.34375 0.921875 -6.34375 L 2.34375 -6.34375 C 2.4375 -6.34375 2.515625 -6.320312 2.578125 -6.28125 C 2.640625 -6.238281 2.695312 -6.171875 2.75 -6.078125 L 3.546875 -4.640625 C 3.578125 -4.585938 3.597656 -4.550781 3.609375 -4.53125 C 3.628906 -4.507812 3.660156 -4.5 3.703125 -4.5 L 3.78125 -4.5 C 3.8125 -4.5 3.835938 -4.507812 3.859375 -4.53125 C 3.878906 -4.550781 3.90625 -4.585938 3.9375 -4.640625 L 4.71875 -6.078125 C 4.769531 -6.171875 4.828125 -6.238281 4.890625 -6.28125 C 4.953125 -6.320312 5.03125 -6.34375 5.125 -6.34375 L 6.5625 -6.34375 C 6.664062 -6.34375 6.742188 -6.316406 6.796875 -6.265625 C 6.847656 -6.210938 6.875 -6.132812 6.875 -6.03125 L 6.875 -0.3125 C 6.875 -0.207031 6.847656 -0.128906 6.796875 -0.078125 C 6.742188 -0.0234375 6.664062 0 6.5625 0 L 5.203125 0 C 5.085938 0 5.003906 -0.0234375 4.953125 -0.078125 C 4.898438 -0.128906 4.875 -0.207031 4.875 -0.3125 L 4.875 -3.421875 L 4.359375 -2.453125 C 4.304688 -2.359375 4.242188 -2.285156 4.171875 -2.234375 C 4.097656 -2.191406 4.003906 -2.171875 3.890625 -2.171875 L 3.546875 -2.171875 C 3.429688 -2.171875 3.335938 -2.191406 3.265625 -2.234375 C 3.191406 -2.285156 3.128906 -2.359375 3.078125 -2.453125 L 2.5625 -3.421875 L 2.5625 -0.3125 C 2.5625 -0.207031 2.535156 -0.128906 2.484375 -0.078125 C 2.429688 -0.0234375 2.347656 0 2.234375 0 Z M 2.234375 0 "/></g></g></g><g fill="#1966bf" fill-opacity="1"><g transform="translate(109.486335, 62.750094)"><g/></g></g><g fill="#1966bf" fill-opacity="1"><g transform="translate(111.470134, 62.750094)"><g><path d="M 2.484375 -6.828125 L 2.484375 0.46875 C 2.484375 0.582031 2.457031 0.664062 2.40625 0.71875 C 2.351562 0.769531 2.273438 0.796875 2.171875 0.796875 L 0.890625 0.796875 C 0.773438 0.796875 0.691406 0.769531 0.640625 0.71875 C 0.597656 0.664062 0.578125 0.582031 0.578125 0.46875 L 0.578125 -6.828125 C 0.578125 -6.929688 0.597656 -7.007812 0.640625 -7.0625 C 0.691406 -7.113281 0.773438 -7.140625 0.890625 -7.140625 L 2.171875 -7.140625 C 2.273438 -7.140625 2.351562 -7.113281 2.40625 -7.0625 C 2.457031 -7.007812 2.484375 -6.929688 2.484375 -6.828125 Z M 2.484375 -6.828125 "/></g></g></g><g fill="#1966bf" fill-opacity="1"><g transform="translate(114.529591, 62.750094)"><g/></g></g><g fill="#1966bf" fill-opacity="1"><g transform="translate(116.51339, 62.750094)"><g><path d="M 2.90625 -4.5 L 2.5 -3.15625 L 3.875 -3.15625 L 3.46875 -4.5 C 3.4375 -4.550781 3.40625 -4.585938 3.375 -4.609375 C 3.351562 -4.628906 3.328125 -4.640625 3.296875 -4.640625 L 3.078125 -4.640625 C 3.035156 -4.640625 3 -4.628906 2.96875 -4.609375 C 2.945312 -4.585938 2.925781 -4.550781 2.90625 -4.5 Z M 2.40625 -0.3125 C 2.40625 -0.207031 2.378906 -0.128906 2.328125 -0.078125 C 2.273438 -0.0234375 2.195312 0 2.09375 0 L 0.796875 0 C 0.679688 0 0.597656 -0.0234375 0.546875 -0.078125 C 0.492188 -0.128906 0.46875 -0.207031 0.46875 -0.3125 L 0.46875 -2.640625 C 0.46875 -2.816406 0.492188 -3.019531 0.546875 -3.25 C 0.609375 -3.476562 0.695312 -3.742188 0.8125 -4.046875 L 1.59375 -6.046875 C 1.625 -6.148438 1.675781 -6.222656 1.75 -6.265625 C 1.820312 -6.316406 1.914062 -6.34375 2.03125 -6.34375 L 4.40625 -6.34375 C 4.519531 -6.34375 4.613281 -6.316406 4.6875 -6.265625 C 4.757812 -6.222656 4.8125 -6.148438 4.84375 -6.046875 L 5.609375 -4.046875 C 5.734375 -3.742188 5.820312 -3.476562 5.875 -3.25 C 5.925781 -3.019531 5.953125 -2.816406 5.953125 -2.640625 L 5.953125 -0.3125 C 5.953125 -0.207031 5.925781 -0.128906 5.875 -0.078125 C 5.832031 -0.0234375 5.753906 0 5.640625 0 L 4.3125 0 C 4.195312 0 4.109375 -0.0234375 4.046875 -0.078125 C 3.992188 -0.128906 3.96875 -0.207031 3.96875 -0.3125 L 3.96875 -1.546875 L 2.40625 -1.546875 Z M 2.40625 -0.3125 "/></g></g></g><g fill="#1966bf" fill-opacity="1"><g transform="translate(122.949715, 62.750094)"><g><path d="M 3.890625 0 L 0.921875 0 C 0.816406 0 0.738281 -0.0234375 0.6875 -0.078125 C 0.632812 -0.128906 0.609375 -0.207031 0.609375 -0.3125 L 0.609375 -6.03125 C 0.609375 -6.132812 0.632812 -6.210938 0.6875 -6.265625 C 0.738281 -6.316406 0.816406 -6.34375 0.921875 -6.34375 L 3.890625 -6.34375 C 4.628906 -6.34375 5.175781 -6.195312 5.53125 -5.90625 C 5.882812 -5.613281 6.0625 -5.160156 6.0625 -4.546875 L 6.0625 -1.796875 C 6.0625 -1.179688 5.882812 -0.726562 5.53125 -0.4375 C 5.175781 -0.144531 4.628906 0 3.890625 0 Z M 2.609375 -4.65625 L 2.609375 -1.671875 L 3.65625 -1.671875 C 3.800781 -1.671875 3.90625 -1.703125 3.96875 -1.765625 C 4.039062 -1.835938 4.078125 -1.945312 4.078125 -2.09375 L 4.078125 -4.234375 C 4.078125 -4.378906 4.039062 -4.484375 3.96875 -4.546875 C 3.90625 -4.617188 3.800781 -4.65625 3.65625 -4.65625 Z M 2.609375 -4.65625 "/></g></g></g></svg>